<svg width="224.000000" height="224.000000" viewBox="0 0 224 224" fill="none" xmlns="http://www.w3.org/2000/svg" xmlns:xlink="http://www.w3.org/1999/xlink">
	<desc>
			Created with Pixso.
	</desc>
	<defs/>
	<circle id="path-1" cx="112.000000" cy="112.000000" r="112.000000" fill="#ECAD7A" fill-opacity="1.000000"/>
	<mask id="mask0_930" mask-type="alpha" maskUnits="userSpaceOnUse" x="0.000000" y="0.000000" width="224.000000" height="224.000000">
		<circle id="path-1" cx="112.000000" cy="112.000000" r="112.000000" fill="#000000" fill-opacity="1.000000"/>
	</mask>
	<g mask="url(#mask0_930)">
		<path id="Combined-Shape" d="M14.6254 113.155C17.1761 113.155 19.2439 115.223 19.2439 117.773C19.2439 120.324 17.1761 122.392 14.6254 122.392L-45.4159 122.392C-47.9667 122.392 -50.0344 120.324 -50.0344 117.773C-50.0344 115.223 -47.9667 113.155 -45.4159 113.155L14.6254 113.155ZM99.299 113.155C101.85 113.155 103.917 115.223 103.917 117.773C103.917 120.324 101.85 122.392 99.299 122.392L69.2783 122.392L69.2784 122.396C66.8169 122.497 64.8522 124.524 64.8522 127.01C64.8522 129.497 66.8169 131.524 69.2784 131.625L69.2783 131.629L130.859 131.629C133.41 131.629 135.478 133.697 135.478 136.248C135.478 138.798 133.41 140.866 130.859 140.866L31.9449 140.866C29.3942 140.866 27.3264 138.798 27.3264 136.248C27.3264 133.697 29.3942 131.629 31.9449 131.629L50.8041 131.629C53.3549 131.629 55.4226 129.561 55.4226 127.01C55.4226 124.459 53.3549 122.392 50.8041 122.392L39.2577 122.392C36.7069 122.392 34.6392 120.324 34.6392 117.773C34.6392 115.223 36.7069 113.155 39.2577 113.155L99.299 113.155ZM159.34 122.392C161.891 122.392 163.959 124.459 163.959 127.01C163.959 129.561 161.891 131.629 159.34 131.629L155.876 131.629C153.325 131.629 151.258 133.697 151.258 136.248C151.258 138.798 153.325 140.866 155.876 140.866L254.79 140.866C257.341 140.866 259.409 138.798 259.409 136.248C259.409 133.697 257.341 131.629 254.79 131.629L177.814 131.629L177.814 131.625C175.353 131.524 173.388 129.497 173.388 127.01C173.388 124.524 175.353 122.497 177.814 122.396L177.814 122.392L187.052 122.392C189.602 122.392 191.67 120.324 191.67 117.773C191.67 115.223 189.602 113.155 187.052 113.155L127.01 113.155C124.459 113.155 122.392 115.223 122.392 117.773C122.392 120.324 124.459 122.392 127.01 122.392L159.34 122.392ZM274.034 117.773C274.034 115.223 271.967 113.155 269.416 113.155L209.375 113.155C206.824 113.155 204.756 115.223 204.756 117.773C204.756 120.324 206.824 122.392 209.375 122.392L269.416 122.392C271.967 122.392 274.034 120.324 274.034 117.773ZM20.3986 150.103C22.9493 150.103 25.0171 152.171 25.0171 154.722C25.0171 157.272 22.9493 159.34 20.3986 159.34L-7.69763 159.34C-10.2484 159.34 -12.3162 157.272 -12.3162 154.722C-12.3162 152.171 -10.2484 150.103 -7.69763 150.103L20.3986 150.103ZM130.859 150.103C133.41 150.103 135.478 152.171 135.478 154.722C135.478 157.272 133.41 159.34 130.859 159.34L102.763 159.34C100.212 159.34 98.1443 157.272 98.1443 154.722C98.1443 152.171 100.212 150.103 102.763 150.103L130.859 150.103ZM232.467 154.722C232.467 152.171 230.4 150.103 227.849 150.103L163.959 150.103C161.408 150.103 159.34 152.171 159.34 154.722C159.34 157.272 161.408 159.34 163.959 159.34L227.849 159.34C230.4 159.34 232.467 157.272 232.467 154.722Z" clip-rule="evenodd" fill="#F0D29F" fill-opacity="1.000000" fill-rule="evenodd"/>
	</g>
	<mask id="mask0_940" mask-type="alpha" maskUnits="userSpaceOnUse" x="0.000000" y="0.000000" width="224.000000" height="224.000000">
		<circle id="path-1" cx="112.000000" cy="112.000000" r="112.000000" fill="#000000" fill-opacity="1.000000"/>
	</mask>
	<g mask="url(#mask0_940)">
		<path id="Combined-Shape" d="M61.19 154.72C61.19 152.17 59.12 150.1 56.57 150.1L45.41 150.1C42.86 150.1 40.79 148.03 40.79 145.48C40.79 142.93 42.86 140.86 45.41 140.86L84.28 140.86C86.83 140.86 88.9 142.93 88.9 145.48C88.9 148.03 86.83 150.1 84.28 150.1L83.13 150.1L83.13 150.1C80.67 150.2 78.7 152.23 78.7 154.72C78.7 157.2 80.67 159.23 83.13 159.33L83.13 159.34L84.28 159.34C86.83 159.34 88.9 161.4 88.9 163.95C88.9 166.51 86.83 168.57 84.28 168.57L55.03 168.57C52.48 168.57 50.41 166.51 50.41 163.95C50.41 161.4 52.48 159.34 55.03 159.34L56.57 159.34C59.12 159.34 61.19 157.27 61.19 154.72Z" fill="#D86534" fill-opacity="1.000000" fill-rule="nonzero"/>
	</g>
	<mask id="mask0_943" mask-type="alpha" maskUnits="userSpaceOnUse" x="0.000000" y="0.000000" width="224.000000" height="224.000000">
		<circle id="path-1" cx="112.000000" cy="112.000000" r="112.000000" fill="#000000" fill-opacity="1.000000"/>
	</mask>
	<g mask="url(#mask0_943)">
		<path id="Combined-Shape-Copy" d="M179.354 20.7837C176.803 20.7837 174.735 22.8516 174.735 25.4023C174.735 27.9531 176.803 30.021 179.354 30.021L239.395 30.021C241.946 30.021 244.014 27.9531 244.014 25.4023C244.014 22.8516 241.946 20.7837 239.395 20.7837L179.354 20.7837ZM94.6803 20.7837C92.1296 20.7837 90.0618 22.8516 90.0618 25.4023C90.0618 27.9531 92.1296 30.021 94.6803 30.021L124.701 30.021L124.701 30.0249C127.162 30.1255 129.127 32.1528 129.127 34.6392C129.127 37.1255 127.162 39.1533 124.701 39.2539L124.701 39.2578L63.1202 39.2578C60.5695 39.2578 58.5017 41.3257 58.5017 43.8765C58.5017 46.4272 60.5695 48.4951 63.1202 48.4951L162.034 48.4951C164.585 48.4951 166.653 46.4272 166.653 43.8765C166.653 41.3257 164.585 39.2578 162.034 39.2578L143.175 39.2578C140.624 39.2578 138.557 37.1899 138.557 34.6392C138.557 32.0884 140.624 30.021 143.175 30.021L154.722 30.021C157.272 30.021 159.34 27.9531 159.34 25.4023C159.34 22.8516 157.272 20.7837 154.722 20.7837L94.6803 20.7837ZM34.6392 30.021C32.0884 30.021 30.0205 32.0884 30.0205 34.6392C30.0205 37.1899 32.0884 39.2578 34.6392 39.2578L38.103 39.2578C40.6538 39.2578 42.7216 41.3257 42.7216 43.8765C42.7216 46.4272 40.6538 48.4951 38.103 48.4951L-60.811 48.4951C-63.3618 48.4951 -65.4297 46.4272 -65.4297 43.8765C-65.4297 41.3257 -63.3618 39.2578 -60.811 39.2578L16.1649 39.2578L16.1648 39.2539C18.6263 39.1533 20.5909 37.1255 20.5909 34.6392C20.5909 32.1528 18.6263 30.1255 16.1648 30.0249L16.1649 30.021L6.92773 30.021C4.37695 30.021 2.3092 27.9531 2.3092 25.4023C2.3092 22.8516 4.37695 20.7837 6.92773 20.7837L66.969 20.7837C69.5198 20.7837 71.5875 22.8516 71.5875 25.4023C71.5875 27.9531 69.5198 30.021 66.969 30.021L34.6392 30.021ZM-80.0551 25.4023C-80.0551 22.8516 -77.9873 20.7837 -75.4365 20.7837L-15.3953 20.7837C-12.8445 20.7837 -10.7767 22.8516 -10.7767 25.4023C-10.7767 27.9531 -12.8445 30.021 -15.3953 30.021L-75.4365 30.021C-77.9873 30.021 -80.0551 27.9531 -80.0551 25.4023ZM173.581 57.7319C171.03 57.7319 168.962 59.7998 168.962 62.3506C168.962 64.9014 171.03 66.9692 173.581 66.9692L201.677 66.9692C204.228 66.9692 206.295 64.9014 206.295 62.3506C206.295 59.7998 204.228 57.7319 201.677 57.7319L173.581 57.7319ZM63.1202 57.7319C60.5695 57.7319 58.5017 59.7998 58.5017 62.3506C58.5017 64.9014 60.5695 66.9692 63.1202 66.9692L91.2164 66.9692C93.7672 66.9692 95.835 64.9014 95.835 62.3506C95.835 59.7998 93.7672 57.7319 91.2164 57.7319L63.1202 57.7319ZM-38.488 62.3506C-38.488 59.7998 -36.4203 57.7319 -33.8695 57.7319L30.0205 57.7319C32.5713 57.7319 34.6392 59.7998 34.6392 62.3506C34.6392 64.9014 32.5713 66.9692 30.0205 66.9692L-33.8695 66.9692C-36.4203 66.9692 -38.488 64.9014 -38.488 62.3506Z" clip-rule="evenodd" fill="#DC8E61" fill-opacity="1.000000" fill-rule="evenodd"/>
	</g>
	<mask id="mask0_953" mask-type="alpha" maskUnits="userSpaceOnUse" x="0.000000" y="0.000000" width="224.000000" height="224.000000">
		<circle id="path-1" cx="112.000000" cy="112.000000" r="112.000000" fill="#000000" fill-opacity="1.000000"/>
	</mask>
	<g mask="url(#mask0_953)">
		<path id="Combined-Shape-Copy-2" d="M240.165 168.577C237.614 168.577 235.546 170.645 235.546 173.196C235.546 175.747 237.614 177.814 240.165 177.814L300.206 177.814C302.757 177.814 304.825 175.747 304.825 173.196C304.825 170.645 302.757 168.577 300.206 168.577L240.165 168.577ZM155.491 168.577C152.941 168.577 150.873 170.645 150.873 173.196C150.873 175.747 152.941 177.814 155.491 177.814L185.512 177.814L185.512 177.818C187.973 177.919 189.938 179.946 189.938 182.433C189.938 184.919 187.973 186.947 185.512 187.047L185.512 187.051L123.931 187.051C121.38 187.051 119.313 189.119 119.313 191.67C119.313 194.221 121.38 196.289 123.931 196.289L222.845 196.289C225.396 196.289 227.464 194.221 227.464 191.67C227.464 189.119 225.396 187.051 222.845 187.051L203.986 187.051C201.435 187.051 199.368 184.983 199.368 182.433C199.368 179.882 201.435 177.814 203.986 177.814L215.533 177.814C218.083 177.814 220.151 175.747 220.151 173.196C220.151 170.645 218.083 168.577 215.533 168.577L155.491 168.577ZM95.4502 177.814C92.8994 177.814 90.8315 179.882 90.8315 182.433C90.8315 184.983 92.8994 187.051 95.4502 187.051L98.9141 187.051C101.465 187.051 103.533 189.119 103.533 191.67C103.533 194.221 101.465 196.289 98.9141 196.289L0 196.289C-2.55078 196.289 -4.61865 194.221 -4.61865 191.67C-4.61865 189.119 -2.55078 187.051 0 187.051L76.976 187.051L76.9758 187.047C79.4374 186.947 81.402 184.919 81.402 182.433C81.402 179.946 79.4374 177.919 76.9758 177.818L76.976 177.814L67.7388 177.814C65.188 177.814 63.1202 175.747 63.1202 173.196C63.1202 170.645 65.188 168.577 67.7388 168.577L127.78 168.577C130.331 168.577 132.399 170.645 132.399 173.196C132.399 175.747 130.331 177.814 127.78 177.814L95.4502 177.814ZM-19.244 173.196C-19.244 170.645 -17.1763 168.577 -14.6255 168.577L45.4158 168.577C47.9666 168.577 50.0343 170.645 50.0343 173.196C50.0343 175.747 47.9666 177.814 45.4158 177.814L-14.6255 177.814C-17.1763 177.814 -19.244 175.747 -19.244 173.196ZM234.392 205.525C231.841 205.525 229.773 207.593 229.773 210.144C229.773 212.695 231.841 214.763 234.392 214.763L262.488 214.763C265.039 214.763 267.106 212.695 267.106 210.144C267.106 207.593 265.039 205.525 262.488 205.525L234.392 205.525ZM123.931 205.525C121.38 205.525 119.313 207.593 119.313 210.144C119.313 212.695 121.38 214.763 123.931 214.763L152.027 214.763C154.578 214.763 156.646 212.695 156.646 210.144C156.646 207.593 154.578 205.525 152.027 205.525L123.931 205.525ZM22.323 210.144C22.323 207.593 24.3907 205.525 26.9415 205.525L90.8315 205.525C93.3823 205.525 95.4502 207.593 95.4502 210.144C95.4502 212.695 93.3823 214.763 90.8315 214.763L26.9415 214.763C24.3907 214.763 22.323 212.695 22.323 210.144Z" clip-rule="evenodd" fill="#D89D6D" fill-opacity="1.000000" fill-rule="evenodd"/>
	</g>
	<mask id="mask0_963" mask-type="alpha" maskUnits="userSpaceOnUse" x="0.000000" y="0.000000" width="224.000000" height="224.000000">
		<circle id="path-1" cx="112.000000" cy="112.000000" r="112.000000" fill="#000000" fill-opacity="1.000000"/>
	</mask>
	<g mask="url(#mask0_963)">
		<path id="Combined-Shape" d="M72.7423 90.0615C72.7423 87.5107 70.6744 85.4434 68.1237 85.4434L43.1066 85.4434C40.5558 85.4434 38.4879 83.3755 38.4879 80.8247C38.4879 78.2739 40.5558 76.2061 43.1066 76.2061L119.698 76.2061C122.248 76.2061 124.316 78.2739 124.316 80.8247C124.316 83.3755 122.248 85.4434 119.698 85.4434L94.6804 85.4434L94.6801 85.4473C92.2188 85.5483 90.2544 87.5757 90.2544 90.0615C90.2544 92.5479 92.2188 94.5752 94.6801 94.6763L94.6804 94.6802L98.5292 94.6802C101.08 94.6802 103.148 96.748 103.148 99.2988C103.148 101.85 101.08 103.917 98.5292 103.917L64.2749 103.917C61.7241 103.917 59.6564 101.85 59.6564 99.2988C59.6564 96.748 61.7241 94.6802 64.2749 94.6802L68.1237 94.6802C70.6744 94.6802 72.7423 92.6123 72.7423 90.0615ZM45.8007 94.6802C48.3514 94.6802 50.4192 96.748 50.4192 99.2988C50.4192 101.85 48.3514 103.917 45.8007 103.917L21.9381 103.917C19.3873 103.917 17.3196 101.85 17.3196 99.2988C17.3196 96.748 19.3873 94.6802 21.9381 94.6802L45.8007 94.6802ZM3.46387 94.6802C6.01465 94.6802 8.08252 96.748 8.08252 99.2988C8.08252 101.85 6.01465 103.917 3.46387 103.917L-7.31274 103.917C-9.86353 103.917 -11.9313 101.85 -11.9313 99.2988C-11.9313 96.748 -9.86353 94.6802 -7.31274 94.6802L3.46387 94.6802ZM181.663 94.6802C184.214 94.6802 186.282 96.748 186.282 99.2988C186.282 101.85 184.214 103.917 181.663 103.917L117.003 103.917C114.453 103.917 112.385 101.85 112.385 99.2988C112.385 96.748 114.453 94.6802 117.003 94.6802L181.663 94.6802ZM210.914 94.6802C213.465 94.6802 215.533 96.748 215.533 99.2988C215.533 101.85 213.465 103.917 210.914 103.917L200.137 103.917C197.587 103.917 195.519 101.85 195.519 99.2988C195.519 96.748 197.587 94.6802 200.137 94.6802L210.914 94.6802ZM192.825 76.2061C195.375 76.2061 197.443 78.2739 197.443 80.8247C197.443 83.3755 195.375 85.4434 192.825 85.4434L138.172 85.4434C135.621 85.4434 133.553 83.3755 133.553 80.8247C133.553 78.2739 135.621 76.2061 138.172 76.2061L192.825 76.2061ZM230.543 76.2061C233.094 76.2061 235.161 78.2739 235.161 80.8247C235.161 83.3755 233.094 85.4434 230.543 85.4434L211.299 85.4434C208.748 85.4434 206.68 83.3755 206.68 80.8247C206.68 78.2739 208.748 76.2061 211.299 76.2061L230.543 76.2061ZM15.3951 76.2061C17.9459 76.2061 20.0138 78.2739 20.0138 80.8247C20.0138 83.3755 17.9459 85.4434 15.3951 85.4434L4.61853 85.4434C2.06775 85.4434 0 83.3755 0 80.8247C0 78.2739 2.06775 76.2061 4.61853 76.2061L15.3951 76.2061Z" clip-rule="evenodd" fill="#D89D6D" fill-opacity="1.000000" fill-rule="evenodd"/>
	</g>
	<mask id="mask0_974" mask-type="alpha" maskUnits="userSpaceOnUse" x="0.000000" y="0.000000" width="224.000000" height="224.000000">
		<circle id="path-1" cx="112.000000" cy="112.000000" r="112.000000" fill="#000000" fill-opacity="1.000000"/>
	</mask>
	<g mask="url(#mask0_974)">
		<g opacity="0.077576" style="mix-blend-mode:normal">
			<rect id="Rectangle" x="112.000000" width="112.384880" height="224.000000" fill="#000000" fill-opacity="1.000000"/>
		</g>
	</g>
</svg>
