<svg width="176.000000" height="176.000000" viewBox="0 0 176 176" fill="none" xmlns="http://www.w3.org/2000/svg" xmlns:xlink="http://www.w3.org/1999/xlink">
	<desc>
			Created with Pixso.
	</desc>
	<defs/>
	<circle id="path-1" cx="88.000000" cy="88.000000" r="88.000000" fill="#65F0D5" fill-opacity="1.000000"/>
	<mask id="mask0_443" mask-type="alpha" maskUnits="userSpaceOnUse" x="0.000000" y="0.000000" width="176.000000" height="176.000000">
		<circle id="path-1" cx="88.000000" cy="88.000000" r="88.000000" fill="#000000" fill-opacity="1.000000"/>
	</mask>
	<g mask="url(#mask0_443)">
		<path id="Combined-Shape-Copy-3" d="M171.051 -57.6416C171.051 -55.0947 168.986 -53.0303 166.439 -53.0303C163.892 -53.0303 161.828 -55.0947 161.828 -57.6416L161.828 -117.589C161.828 -120.136 163.892 -122.201 166.439 -122.201C168.986 -122.201 171.051 -120.136 171.051 -117.589L171.051 -57.6416ZM171.051 26.8999C171.051 29.4463 168.986 31.5112 166.439 31.5112C163.892 31.5112 161.828 29.4463 161.828 26.8999L161.828 -3.07422L161.824 -3.07373C161.723 -5.53174 159.699 -7.49316 157.217 -7.49316C154.734 -7.49316 152.71 -5.53174 152.609 -3.07373L152.605 -3.07422L152.605 58.4106C152.605 60.9575 150.541 63.022 147.994 63.022C145.447 63.022 143.382 60.9575 143.382 58.4106L143.382 -40.3491C143.382 -42.896 145.447 -44.9604 147.994 -44.9604C150.541 -44.9604 152.605 -42.896 152.605 -40.3491L152.605 -21.5195C152.605 -18.9727 154.67 -16.9082 157.217 -16.9082C159.763 -16.9082 161.828 -18.9727 161.828 -21.5195L161.828 -33.0479C161.828 -35.5947 163.892 -37.6592 166.439 -37.6592C168.986 -37.6592 171.051 -35.5947 171.051 -33.0479L171.051 26.8999ZM161.828 86.8472C161.828 89.394 159.763 91.4585 157.217 91.4585C154.67 91.4585 152.605 89.394 152.605 86.8472L152.605 83.3887C152.605 80.8423 150.541 78.7773 147.994 78.7773C145.447 78.7773 143.382 80.8423 143.382 83.3887L143.382 182.148C143.382 184.695 145.447 186.76 147.994 186.76C150.541 186.76 152.605 184.695 152.605 182.148L152.605 105.293L152.609 105.293C152.71 102.835 154.734 100.874 157.217 100.874C159.699 100.874 161.723 102.835 161.824 105.293L161.828 105.293L161.828 114.516C161.828 117.062 163.892 119.127 166.439 119.127C168.986 119.127 171.051 117.062 171.051 114.516L171.051 54.5679C171.051 52.021 168.986 49.9565 166.439 49.9565C163.892 49.9565 161.828 52.021 161.828 54.5679L161.828 86.8472ZM166.439 201.363C168.986 201.363 171.051 199.298 171.051 196.751L171.051 136.804C171.051 134.257 168.986 132.192 166.439 132.192C163.892 132.192 161.828 134.257 161.828 136.804L161.828 196.751C161.828 199.298 163.892 201.363 166.439 201.363ZM134.16 -51.8774C134.16 -49.3306 132.095 -47.2661 129.548 -47.2661C127.002 -47.2661 124.937 -49.3306 124.937 -51.8774L124.937 -79.9302C124.937 -82.4766 127.002 -84.5415 129.548 -84.5415C132.095 -84.5415 134.16 -82.4766 134.16 -79.9302L134.16 -51.8774ZM134.16 58.4106C134.16 60.9575 132.095 63.022 129.548 63.022C127.002 63.022 124.937 60.9575 124.937 58.4106L124.937 30.3584C124.937 27.8115 127.002 25.7471 129.548 25.7471C132.095 25.7471 134.16 27.8115 134.16 30.3584L134.16 58.4106ZM129.548 159.86C132.095 159.86 134.16 157.796 134.16 155.249L134.16 91.4585C134.16 88.9121 132.095 86.8472 129.548 86.8472C127.002 86.8472 124.937 88.9121 124.937 91.4585L124.937 155.249C124.937 157.796 127.002 159.86 129.548 159.86Z" clip-rule="evenodd" fill="#49CBC2" fill-opacity="1.000000" fill-rule="evenodd"/>
	</g>
	<mask id="mask0_453" mask-type="alpha" maskUnits="userSpaceOnUse" x="0.000000" y="0.000000" width="176.000000" height="176.000000">
		<circle id="path-1" cx="88.000000" cy="88.000000" r="88.000000" fill="#000000" fill-opacity="1.000000"/>
	</mask>
	<g mask="url(#mask0_453)">
		<path id="Combined-Shape-Copy" d="M69.6008 -84.5415C69.6008 -81.9946 71.6654 -79.9302 74.2122 -79.9302C76.759 -79.9302 78.8235 -81.9946 78.8235 -84.5415L78.8235 -144.489C78.8235 -147.036 76.759 -149.101 74.2122 -149.101C71.6654 -149.101 69.6008 -147.036 69.6008 -144.489L69.6008 -84.5415ZM69.6008 0C69.6008 2.54688 71.6654 4.61133 74.2122 4.61133C76.759 4.61133 78.8235 2.54688 78.8235 0L78.8235 -29.9741L78.8275 -29.9736C78.9281 -32.4316 80.9525 -34.3931 83.4349 -34.3931C85.9174 -34.3931 87.9417 -32.4316 88.0423 -29.9736L88.0463 -29.9741L88.0463 31.5107C88.0463 34.0576 90.1108 36.1221 92.6576 36.1221C95.2044 36.1221 97.2689 34.0576 97.2689 31.5107L97.2689 -67.249C97.2689 -69.7959 95.2044 -71.8604 92.6576 -71.8604C90.1108 -71.8604 88.0463 -69.7959 88.0463 -67.249L88.0463 -48.4194C88.0463 -45.8726 85.9817 -43.8081 83.4349 -43.8081C80.8881 -43.8081 78.8235 -45.8726 78.8235 -48.4194L78.8235 -59.9478C78.8235 -62.4946 76.759 -64.5591 74.2122 -64.5591C71.6654 -64.5591 69.6008 -62.4946 69.6008 -59.9478L69.6008 0ZM78.8235 59.9473C78.8235 62.4941 80.8881 64.5586 83.4349 64.5586C85.9817 64.5586 88.0463 62.4941 88.0463 59.9473L88.0463 56.4888C88.0463 53.9424 90.1108 51.8774 92.6576 51.8774C95.2044 51.8774 97.2689 53.9424 97.2689 56.4888L97.2689 155.249C97.2689 157.795 95.2044 159.86 92.6576 159.86C90.1108 159.86 88.0463 157.795 88.0463 155.249L88.0463 78.3931L88.0423 78.3931C87.9417 75.9351 85.9174 73.9736 83.4349 73.9736C80.9525 73.9736 78.9281 75.9351 78.8275 78.3931L78.8235 78.3931L78.8235 87.6157C78.8235 90.1621 76.759 92.2271 74.2122 92.2271C71.6654 92.2271 69.6008 90.1621 69.6008 87.6157L69.6008 27.668C69.6008 25.1211 71.6654 23.0566 74.2122 23.0566C76.759 23.0566 78.8235 25.1211 78.8235 27.668L78.8235 59.9473ZM74.2122 174.463C71.6654 174.463 69.6008 172.398 69.6008 169.852L69.6008 109.904C69.6008 107.357 71.6654 105.292 74.2122 105.292C76.759 105.292 78.8235 107.357 78.8235 109.904L78.8235 169.852C78.8235 172.398 76.759 174.463 74.2122 174.463ZM106.492 -78.7773C106.492 -76.2305 108.556 -74.166 111.103 -74.166C113.65 -74.166 115.714 -76.2305 115.714 -78.7773L115.714 -106.83C115.714 -109.376 113.65 -111.441 111.103 -111.441C108.556 -111.441 106.492 -109.376 106.492 -106.83L106.492 -78.7773ZM106.492 31.5107C106.492 34.0576 108.556 36.1221 111.103 36.1221C113.65 36.1221 115.714 34.0576 115.714 31.5107L115.714 3.4585C115.714 0.911621 113.65 -1.15283 111.103 -1.15283C108.556 -1.15283 106.492 0.911621 106.492 3.4585L106.492 31.5107ZM111.103 132.96C108.556 132.96 106.492 130.896 106.492 128.349L106.492 64.5586C106.492 62.0122 108.556 59.9473 111.103 59.9473C113.65 59.9473 115.714 62.0122 115.714 64.5586L115.714 128.349C115.714 130.896 113.65 132.96 111.103 132.96Z" clip-rule="evenodd" fill="#50DECD" fill-opacity="1.000000" fill-rule="evenodd"/>
	</g>
	<mask id="mask0_463" mask-type="alpha" maskUnits="userSpaceOnUse" x="0.000000" y="0.000000" width="176.000000" height="176.000000">
		<circle id="path-1" cx="88.000000" cy="88.000000" r="88.000000" fill="#000000" fill-opacity="1.000000"/>
	</mask>
	<g mask="url(#mask0_463)">
		<path id="Combined-Shape-Copy-2" d="M60.3781 -97.2227C60.3781 -94.6758 58.3135 -92.6113 55.7667 -92.6113C53.2199 -92.6113 51.1553 -94.6758 51.1553 -97.2227L51.1553 -157.17C51.1553 -159.717 53.2199 -161.782 55.7667 -161.782C58.3135 -161.782 60.3781 -159.717 60.3781 -157.17L60.3781 -97.2227ZM60.3781 -12.6812C60.3781 -10.1348 58.3135 -8.06982 55.7667 -8.06982C53.2199 -8.06982 51.1553 -10.1348 51.1553 -12.6812L51.1553 -42.6553L51.1514 -42.6548C51.0508 -45.1128 49.0264 -47.0742 46.544 -47.0742C44.0615 -47.0742 42.0372 -45.1128 41.9366 -42.6548L41.9326 -42.6553L41.9326 18.8296C41.9326 21.3765 39.868 23.4409 37.3213 23.4409C34.7745 23.4409 32.71 21.3765 32.71 18.8296L32.71 -79.9302C32.71 -82.4771 34.7745 -84.5415 37.3213 -84.5415C39.868 -84.5415 41.9326 -82.4771 41.9326 -79.9302L41.9326 -61.1006C41.9326 -58.5537 43.9972 -56.4893 46.544 -56.4893C49.0908 -56.4893 51.1553 -58.5537 51.1553 -61.1006L51.1553 -72.6289C51.1553 -75.1758 53.2199 -77.2402 55.7667 -77.2402C58.3135 -77.2402 60.3781 -75.1758 60.3781 -72.6289L60.3781 -12.6812ZM51.1553 47.2661C51.1553 49.813 49.0908 51.8774 46.544 51.8774C43.9972 51.8774 41.9326 49.813 41.9326 47.2661L41.9326 43.8076C41.9326 41.2612 39.868 39.1963 37.3213 39.1963C34.7745 39.1963 32.71 41.2612 32.71 43.8076L32.71 142.567C32.71 145.114 34.7745 147.179 37.3213 147.179C39.868 147.179 41.9326 145.114 41.9326 142.567L41.9326 65.7119L41.9366 65.7119C42.0372 63.2539 44.0615 61.2925 46.544 61.2925C49.0264 61.2925 51.0508 63.2539 51.1514 65.7119L51.1553 65.7119L51.1553 74.9346C51.1553 77.4814 53.2199 79.5459 55.7667 79.5459C58.3135 79.5459 60.3781 77.4814 60.3781 74.9346L60.3781 14.9868C60.3781 12.4399 58.3135 10.3755 55.7667 10.3755C53.2199 10.3755 51.1553 12.4399 51.1553 14.9868L51.1553 47.2661ZM55.7667 161.782C58.3135 161.782 60.3781 159.717 60.3781 157.17L60.3781 97.2227C60.3781 94.6758 58.3135 92.6113 55.7667 92.6113C53.2199 92.6113 51.1553 94.6758 51.1553 97.2227L51.1553 157.17C51.1553 159.717 53.2199 161.782 55.7667 161.782ZM23.4872 -91.4585C23.4872 -88.9116 21.4227 -86.8472 18.8759 -86.8472C16.3291 -86.8472 14.2645 -88.9116 14.2645 -91.4585L14.2645 -119.511C14.2645 -122.058 16.3291 -124.123 18.8759 -124.123C21.4227 -124.123 23.4872 -122.058 23.4872 -119.511L23.4872 -91.4585ZM23.4872 18.8296C23.4872 21.3765 21.4227 23.4409 18.8759 23.4409C16.3291 23.4409 14.2645 21.3765 14.2645 18.8296L14.2645 -9.22266C14.2645 -11.7695 16.3291 -13.834 18.8759 -13.834C21.4227 -13.834 23.4872 -11.7695 23.4872 -9.22266L23.4872 18.8296ZM18.8759 120.279C21.4227 120.279 23.4872 118.215 23.4872 115.668L23.4872 51.8774C23.4872 49.3311 21.4227 47.2661 18.8759 47.2661C16.3291 47.2661 14.2645 49.3311 14.2645 51.8774L14.2645 115.668C14.2645 118.215 16.3291 120.279 18.8759 120.279Z" clip-rule="evenodd" fill="#77FFF5" fill-opacity="1.000000" fill-rule="evenodd"/>
	</g>
	<mask id="mask0_473" mask-type="alpha" maskUnits="userSpaceOnUse" x="0.000000" y="0.000000" width="176.000000" height="176.000000">
		<circle id="path-1" cx="88.000000" cy="88.000000" r="88.000000" fill="#000000" fill-opacity="1.000000"/>
	</mask>
	<g mask="url(#mask0_473)">
		<g opacity="0.077576" style="mix-blend-mode:normal">
			<rect id="Rectangle" x="88.000000" width="88.000000" height="176.000000" fill="#000000" fill-opacity="1.000000"/>
		</g>
	</g>
</svg>
