<svg width="154.000000" height="154.000000" viewBox="0 0 154 154" fill="none" xmlns="http://www.w3.org/2000/svg" xmlns:xlink="http://www.w3.org/1999/xlink">
	<desc>
			Created with Pixso.
	</desc>
	<defs/>
	<circle id="path-1" cx="77.000000" cy="77.000000" r="77.000000" fill="#F7CC7F" fill-opacity="1.000000"/>
	<mask id="mask0_1688" mask-type="alpha" maskUnits="userSpaceOnUse" x="0.000000" y="0.000000" width="154.000000" height="154.000000">
		<circle id="path-1" cx="77.000000" cy="77.000000" r="77.000000" fill="#000000" fill-opacity="1.000000"/>
	</mask>
	<g mask="url(#mask0_1688)">
		<path id="Combined-Shape" d="M119.35 119.735C121.902 119.735 123.97 121.803 123.97 124.355C123.97 126.907 121.902 128.975 119.35 128.975L72.7649 128.975L72.7646 128.979C70.3025 129.08 68.3376 131.108 68.3376 133.595C68.3376 136.082 70.3025 138.11 72.7646 138.211L72.7649 138.215L73.9199 138.215C76.4714 138.215 78.54 140.283 78.54 142.835C78.54 145.387 76.4714 147.455 73.9199 147.455L44.6599 147.455C42.1084 147.455 40.04 145.387 40.04 142.835C40.04 140.283 42.1084 138.215 44.6599 138.215L46.2 138.215C48.7515 138.215 50.8201 136.146 50.8201 133.595C50.8201 131.043 48.7515 128.975 46.2 128.975L30.415 128.975C27.8635 128.975 25.7949 126.907 25.7949 124.355C25.7949 121.803 27.8635 119.735 30.415 119.735L119.35 119.735ZM111.65 64.2949C114.201 64.2949 116.27 66.3633 116.27 68.915C116.27 71.4663 114.201 73.5352 111.65 73.5352L104.335 73.5352L104.335 73.5391C101.873 73.6396 99.9075 75.668 99.9075 78.1548C99.9075 80.6421 101.873 82.6699 104.335 82.771L104.335 82.7749L135.135 82.7749C137.687 82.7749 139.755 84.8433 139.755 87.395C139.755 89.9463 137.687 92.0151 135.135 92.0151L127.435 92.0151L127.435 92.019C124.973 92.1201 123.008 94.1479 123.008 96.6348C123.008 99.1221 124.973 101.15 127.435 101.251L127.435 101.255L127.82 101.255C130.372 101.255 132.44 103.323 132.44 105.875C132.44 108.427 130.372 110.495 127.82 110.495L98.5601 110.495C96.0083 110.495 93.9399 108.427 93.9399 105.875C93.9399 103.323 96.0083 101.255 98.5601 101.255L100.87 101.255C103.421 101.255 105.49 99.1865 105.49 96.6348C105.49 94.0835 103.422 92.0151 100.87 92.0151L46.2 92.0151C43.6484 92.0151 41.5801 89.9463 41.5801 87.395C41.5801 84.8433 43.6484 82.7749 46.2 82.7749L49.665 82.7749C52.2166 82.7749 54.2849 80.7065 54.2849 78.1548C54.2849 75.6035 52.2166 73.5352 49.665 73.5352L22.7151 73.5352C20.1633 73.5352 18.095 71.4663 18.095 68.915C18.095 66.3633 20.1633 64.2949 22.7151 64.2949L111.65 64.2949ZM45.0449 101.255C47.5964 101.255 49.665 103.323 49.665 105.875C49.665 108.427 47.5964 110.495 45.0449 110.495L15.7849 110.495C13.2334 110.495 11.165 108.427 11.165 105.875C11.165 103.323 13.2334 101.255 15.7849 101.255L45.0449 101.255ZM170.555 82.7749C173.106 82.7749 175.175 84.8433 175.175 87.395C175.175 89.9463 173.106 92.0151 170.555 92.0151L154.77 92.0151C152.219 92.0151 150.15 89.9463 150.15 87.395C150.15 84.8433 152.219 82.7749 154.77 82.7749L170.555 82.7749ZM-3.65747 64.2949C-1.10596 64.2949 0.962402 66.3633 0.962402 68.915C0.962402 71.4663 -1.10596 73.5352 -3.65747 73.5352L-20.5974 73.5352C-23.1492 73.5352 -25.2175 71.4663 -25.2175 68.915C-25.2175 66.3633 -23.1492 64.2949 -20.5974 64.2949L-3.65747 64.2949ZM107.03 45.8149C109.582 45.8149 111.65 47.8833 111.65 50.4351C111.65 52.9863 109.582 55.0552 107.03 55.0552L83.1599 55.0552C80.6084 55.0552 78.54 52.9863 78.54 50.4351C78.54 47.8833 80.6084 45.8149 83.1599 45.8149L107.03 45.8149ZM53.5149 45.8149C56.0664 45.8149 58.135 47.8833 58.135 50.4351C58.135 52.9863 56.0664 55.0552 53.5149 55.0552L45.8149 55.0552C43.2634 55.0552 41.1951 52.9863 41.1951 50.4351C41.1951 47.8833 43.2634 45.8149 45.8149 45.8149L53.5149 45.8149ZM114.345 8.85498C116.896 8.85498 118.965 10.9233 118.965 13.4751C118.965 16.0264 116.896 18.0952 114.345 18.0952L88.165 18.0952L88.1646 18.0991C85.7026 18.2002 83.7375 20.228 83.7375 22.7148C83.7375 25.2017 85.7026 27.23 88.1646 27.3311L88.165 27.335L89.3201 27.335C91.8716 27.335 93.9399 29.4033 93.9399 31.9551C93.9399 34.5063 91.8716 36.5752 89.3201 36.5752L60.0601 36.5752C57.5083 36.5752 55.4399 34.5063 55.4399 31.9551C55.4399 29.4033 57.5083 27.335 60.0601 27.335L61.6001 27.335C64.1516 27.335 66.22 25.2666 66.22 22.7148C66.22 20.1636 64.1516 18.0952 61.6001 18.0952L15.3999 18.0952C12.8484 18.0952 10.78 16.0264 10.78 13.4751C10.78 10.9233 12.8484 8.85498 15.3999 8.85498L114.345 8.85498ZM115.5 27.335C118.052 27.335 120.12 29.4033 120.12 31.9551C120.12 34.5063 118.052 36.5752 115.5 36.5752L107.8 36.5752C105.249 36.5752 103.18 34.5063 103.18 31.9551C103.18 29.4033 105.249 27.335 107.8 27.335L115.5 27.335ZM41.5801 27.335C44.1316 27.335 46.2 29.4033 46.2 31.9551C46.2 34.5063 44.1316 36.5752 41.5801 36.5752L33.8799 36.5752C31.3284 36.5752 29.26 34.5063 29.26 31.9551C29.26 29.4033 31.3284 27.335 33.8799 27.335L41.5801 27.335Z" clip-rule="evenodd" fill="#FFE6AE" fill-opacity="1.000000" fill-rule="evenodd"/>
	</g>
	<mask id="mask0_1701" mask-type="alpha" maskUnits="userSpaceOnUse" x="0.000000" y="0.000000" width="154.000000" height="154.000000">
		<circle id="path-1" cx="77.000000" cy="77.000000" r="77.000000" fill="#000000" fill-opacity="1.000000"/>
	</mask>
	<g mask="url(#mask0_1701)">
		<path id="Combined-Shape" d="M33.4949 73.5352C36.0466 73.5352 38.115 75.6035 38.115 78.1548C38.115 80.7065 36.0466 82.7749 33.4949 82.7749L31.9551 82.7749C29.4033 82.7749 27.335 84.8433 27.335 87.395C27.335 89.9463 29.4033 92.0151 31.9551 92.0151L61.2151 92.0151C63.7666 92.0151 65.835 89.9463 65.835 87.395C65.835 84.8433 63.7666 82.7749 61.2151 82.7749L60.0601 82.7749L60.0596 82.771C57.5977 82.6699 55.6326 80.6421 55.6326 78.1548C55.6326 75.668 57.5977 73.6401 60.0596 73.5391L60.0601 73.5352L86.24 73.5352C88.7915 73.5352 90.8601 71.4663 90.8601 68.915C90.8601 66.3633 88.7915 64.2949 86.24 64.2949L24.6399 64.2949L24.6401 64.291C22.1777 64.1899 20.2124 62.1621 20.2124 59.6748C20.2124 57.188 22.1777 55.1597 24.6401 55.0591L24.6399 55.0552L54.6699 55.0552C57.2214 55.0552 59.29 52.9863 59.29 50.4351C59.29 47.8833 57.2214 45.8149 54.6699 45.8149L-5.38989 45.8149C-7.94165 45.8149 -10.01 47.8833 -10.01 50.4351C-10.01 52.9863 -7.94165 55.0552 -5.38989 55.0552L6.15991 55.0552C8.71143 55.0552 10.78 57.1235 10.78 59.6748C10.78 62.2266 8.71143 64.2949 6.15991 64.2949L0.77002 64.2949C-1.78149 64.2949 -3.8501 66.3633 -3.8501 68.915C-3.8501 71.4663 -1.78149 73.5352 0.77002 73.5352L33.4949 73.5352ZM138.6 68.915C138.6 66.3633 136.531 64.2949 133.98 64.2949L126.28 64.2949C123.729 64.2949 121.66 66.3633 121.66 68.915C121.66 71.4663 123.729 73.5352 126.28 73.5352L133.98 73.5352C136.531 73.5352 138.6 71.4663 138.6 68.915ZM13.4751 82.7749C16.0266 82.7749 18.095 84.8433 18.095 87.395C18.095 89.9463 16.0266 92.0151 13.4751 92.0151L5.7749 92.0151C3.22339 92.0151 1.15503 89.9463 1.15503 87.395C1.15503 84.8433 3.22339 82.7749 5.7749 82.7749L13.4751 82.7749ZM87.395 82.7749C89.9465 82.7749 92.0149 84.8433 92.0149 87.395C92.0149 89.9463 89.9465 92.0151 87.395 92.0151L79.6951 92.0151C77.1436 92.0151 75.075 89.9463 75.075 87.395C75.075 84.8433 77.1436 82.7749 79.6951 82.7749L87.395 82.7749ZM159.775 87.395C159.775 84.8433 157.707 82.7749 155.155 82.7749L116.27 82.7749C113.719 82.7749 111.65 84.8433 111.65 87.395C111.65 89.9463 113.719 92.0151 116.27 92.0151L155.155 92.0151C157.707 92.0151 159.775 89.9463 159.775 87.395ZM83.5449 105.875C83.5449 103.323 81.4766 101.255 78.925 101.255L55.0549 101.255C52.5034 101.255 50.4351 103.323 50.4351 105.875C50.4351 108.426 52.5034 110.495 55.0549 110.495L78.925 110.495C81.4766 110.495 83.5449 108.426 83.5449 105.875Z" clip-rule="evenodd" fill="#E29F58" fill-opacity="1.000000" fill-rule="evenodd"/>
	</g>
	<mask id="mask0_1710" mask-type="alpha" maskUnits="userSpaceOnUse" x="0.000000" y="0.000000" width="154.000000" height="154.000000">
		<circle id="path-1" cx="77.000000" cy="77.000000" r="77.000000" fill="#000000" fill-opacity="1.000000"/>
	</mask>
	<g mask="url(#mask0_1710)">
		<g opacity="0.077576" style="mix-blend-mode:normal">
			<rect id="Rectangle" x="77.385010" y="-9.625000" width="86.625000" height="173.250000" fill="#000000" fill-opacity="1.000000"/>
		</g>
	</g>
</svg>
