<svg width="173.000000" height="173.000000" viewBox="0 0 173 173" fill="none" xmlns="http://www.w3.org/2000/svg" xmlns:xlink="http://www.w3.org/1999/xlink">
	<desc>
			Created with Pixso.
	</desc>
	<defs/>
	<circle id="path-1" cx="86.500000" cy="86.500000" r="86.500000" fill="#497EFA" fill-opacity="1.000000"/>
	<mask id="mask0_190" mask-type="alpha" maskUnits="userSpaceOnUse" x="0.000000" y="0.000000" width="173.000000" height="173.000000">
		<circle id="path-1" cx="86.500000" cy="86.500000" r="86.500000" fill="#000000" fill-opacity="1.000000"/>
	</mask>
	<g mask="url(#mask0_190)">
		<path id="Combined-Shape" d="M5.83481 63.8179C8.38269 63.8179 10.4481 65.8833 10.4481 68.4312C10.4481 70.979 8.38269 73.0444 5.83481 73.0444L-54.1385 73.0444C-56.6864 73.0444 -58.7519 70.979 -58.7519 68.4312C-58.7519 65.8833 -56.6864 63.8179 -54.1385 63.8179L5.83481 63.8179ZM90.4126 63.8179C92.9604 63.8179 95.0259 65.8833 95.0259 68.4312C95.0259 70.979 92.9604 73.0444 90.4126 73.0444L60.4259 73.0444L60.4261 73.0483C57.9673 73.1489 56.0048 75.1743 56.0048 77.6577C56.0048 80.1416 57.9673 82.1665 60.4261 82.2671L60.4259 82.271L121.937 82.271C124.485 82.271 126.55 84.3364 126.55 86.8848C126.55 89.4326 124.485 91.498 121.937 91.498L23.1348 91.498C20.5869 91.498 18.5215 89.4326 18.5215 86.8848C18.5215 84.3364 20.5869 82.271 23.1348 82.271L41.9726 82.271C44.5204 82.271 46.5859 80.2056 46.5859 77.6577C46.5859 75.1099 44.5204 73.0444 41.9726 73.0444L30.4392 73.0444C27.8914 73.0444 25.8259 70.979 25.8259 68.4312C25.8259 65.8833 27.8914 63.8179 30.4392 63.8179L90.4126 63.8179ZM150.386 73.0444C152.934 73.0444 154.999 75.1099 154.999 77.6577C154.999 80.2056 152.934 82.271 150.386 82.271L146.926 82.271C144.378 82.271 142.313 84.3364 142.313 86.8848C142.313 89.4326 144.378 91.498 146.926 91.498L245.728 91.498C248.276 91.498 250.341 89.4326 250.341 86.8848C250.341 84.3364 248.276 82.271 245.728 82.271L168.839 82.271L168.839 82.2671C166.381 82.1665 164.418 80.1416 164.418 77.6577C164.418 75.1743 166.381 73.1489 168.839 73.0483L168.839 73.0444L178.066 73.0444C180.614 73.0444 182.679 70.979 182.679 68.4312C182.679 65.8833 180.614 63.8179 178.066 63.8179L118.093 63.8179C115.545 63.8179 113.479 65.8833 113.479 68.4312C113.479 70.979 115.545 73.0444 118.093 73.0444L150.386 73.0444ZM264.95 68.4312C264.95 65.8833 262.885 63.8179 260.337 63.8179L200.364 63.8179C197.816 63.8179 195.75 65.8833 195.75 68.4312C195.75 70.979 197.816 73.0444 200.364 73.0444L260.337 73.0444C262.885 73.0444 264.95 70.979 264.95 68.4312ZM11.6015 100.725C14.1494 100.725 16.2148 102.79 16.2148 105.338C16.2148 107.886 14.1494 109.951 11.6015 109.951L-16.463 109.951C-19.0108 109.951 -21.0763 107.886 -21.0763 105.338C-21.0763 102.79 -19.0108 100.725 -16.463 100.725L11.6015 100.725ZM121.937 100.725C124.485 100.725 126.55 102.79 126.55 105.338C126.55 107.886 124.485 109.951 121.937 109.951L93.8726 109.951C91.3247 109.951 89.2592 107.886 89.2592 105.338C89.2592 102.79 91.3247 100.725 93.8726 100.725L121.937 100.725ZM223.43 105.338C223.43 102.79 221.365 100.725 218.817 100.725L154.999 100.725C152.451 100.725 150.386 102.79 150.386 105.338C150.386 107.886 152.451 109.951 154.999 109.951L218.817 109.951C221.365 109.951 223.43 107.886 223.43 105.338Z" clip-rule="evenodd" fill="#356CEE" fill-opacity="1.000000" fill-rule="evenodd"/>
	</g>
	<mask id="mask0_200" mask-type="alpha" maskUnits="userSpaceOnUse" x="0.000000" y="0.000000" width="173.000000" height="173.000000">
		<circle id="path-1" cx="86.500000" cy="86.500000" r="86.500000" fill="#000000" fill-opacity="1.000000"/>
	</mask>
	<g mask="url(#mask0_200)">
		<g opacity="0.400000" style="mix-blend-mode:normal">
			<path id="Combined-Shape-Copy" d="M5.83481 8.45801C8.38269 8.45801 10.4481 10.5234 10.4481 13.0713C10.4481 15.6191 8.38269 17.6846 5.83481 17.6846L-54.1385 17.6846C-56.6864 17.6846 -58.7519 15.6191 -58.7519 13.0713C-58.7519 10.5234 -56.6864 8.45801 -54.1385 8.45801L5.83481 8.45801ZM90.4126 8.45801C92.9604 8.45801 95.0259 10.5234 95.0259 13.0713C95.0259 15.6191 92.9604 17.6846 90.4126 17.6846L60.4259 17.6846L60.4261 17.6885C57.9673 17.7891 56.0048 19.8145 56.0048 22.2979C56.0048 24.7817 57.9673 26.8066 60.4261 26.9072L60.4259 26.9111L121.937 26.9111C124.485 26.9111 126.55 28.9766 126.55 31.5249C126.55 34.0728 124.485 36.1382 121.937 36.1382L23.1348 36.1382C20.5869 36.1382 18.5215 34.0728 18.5215 31.5249C18.5215 28.9766 20.5869 26.9111 23.1348 26.9111L41.9726 26.9111C44.5204 26.9111 46.5859 24.8457 46.5859 22.2979C46.5859 19.75 44.5204 17.6846 41.9726 17.6846L30.4392 17.6846C27.8914 17.6846 25.8259 15.6191 25.8259 13.0713C25.8259 10.5234 27.8914 8.45801 30.4392 8.45801L90.4126 8.45801ZM150.386 17.6846C152.934 17.6846 154.999 19.75 154.999 22.2979C154.999 24.8457 152.934 26.9111 150.386 26.9111L146.926 26.9111C144.378 26.9111 142.313 28.9766 142.313 31.5249C142.313 34.0728 144.378 36.1382 146.926 36.1382L245.728 36.1382C248.276 36.1382 250.341 34.0728 250.341 31.5249C250.341 28.9766 248.276 26.9111 245.728 26.9111L168.839 26.9111L168.839 26.9072C166.381 26.8066 164.418 24.7817 164.418 22.2979C164.418 19.8145 166.381 17.7891 168.839 17.6885L168.839 17.6846L178.066 17.6846C180.614 17.6846 182.679 15.6191 182.679 13.0713C182.679 10.5234 180.614 8.45801 178.066 8.45801L118.093 8.45801C115.545 8.45801 113.479 10.5234 113.479 13.0713C113.479 15.6191 115.545 17.6846 118.093 17.6846L150.386 17.6846ZM264.95 13.0713C264.95 10.5234 262.885 8.45801 260.337 8.45801L200.364 8.45801C197.816 8.45801 195.75 10.5234 195.75 13.0713C195.75 15.6191 197.816 17.6846 200.364 17.6846L260.337 17.6846C262.885 17.6846 264.95 15.6191 264.95 13.0713ZM11.6015 45.3647C14.1494 45.3647 16.2148 47.4302 16.2148 49.978C16.2148 52.5259 14.1494 54.5913 11.6015 54.5913L-16.463 54.5913C-19.0108 54.5913 -21.0763 52.5259 -21.0763 49.978C-21.0763 47.4302 -19.0108 45.3647 -16.463 45.3647L11.6015 45.3647ZM121.937 45.3647C124.485 45.3647 126.55 47.4302 126.55 49.978C126.55 52.5259 124.485 54.5913 121.937 54.5913L93.8726 54.5913C91.3247 54.5913 89.2592 52.5259 89.2592 49.978C89.2592 47.4302 91.3247 45.3647 93.8726 45.3647L121.937 45.3647ZM223.43 49.978C223.43 47.4302 221.365 45.3647 218.817 45.3647L154.999 45.3647C152.451 45.3647 150.386 47.4302 150.386 49.978C150.386 52.5259 152.451 54.5913 154.999 54.5913L218.817 54.5913C221.365 54.5913 223.43 52.5259 223.43 49.978Z" clip-rule="evenodd" fill="#356CEE" fill-opacity="1.000000" fill-rule="evenodd"/>
		</g>
	</g>
	<mask id="mask0_210" mask-type="alpha" maskUnits="userSpaceOnUse" x="0.000000" y="0.000000" width="173.000000" height="173.000000">
		<circle id="path-1" cx="86.500000" cy="86.500000" r="86.500000" fill="#000000" fill-opacity="1.000000"/>
	</mask>
	<g mask="url(#mask0_210)">
		<g opacity="0.400000" style="mix-blend-mode:normal">
			<path id="Combined-Shape-Copy-2" d="M5.83481 128.404C8.38269 128.404 10.4481 130.47 10.4481 133.018C10.4481 135.565 8.38269 137.631 5.83481 137.631L-54.1385 137.631C-56.6864 137.631 -58.7519 135.565 -58.7519 133.018C-58.7519 130.47 -56.6864 128.404 -54.1385 128.404L5.83481 128.404ZM90.4126 128.404C92.9604 128.404 95.0259 130.47 95.0259 133.018C95.0259 135.565 92.9604 137.631 90.4126 137.631L60.4259 137.631L60.4261 137.635C57.9673 137.735 56.0048 139.761 56.0048 142.244C56.0048 144.728 57.9673 146.753 60.4261 146.854L60.4259 146.857L121.937 146.857C124.485 146.857 126.55 148.923 126.55 151.471C126.55 154.019 124.485 156.084 121.937 156.084L23.1348 156.084C20.5869 156.084 18.5215 154.019 18.5215 151.471C18.5215 148.923 20.5869 146.857 23.1348 146.857L41.9726 146.857C44.5204 146.857 46.5859 144.792 46.5859 142.244C46.5859 139.696 44.5204 137.631 41.9726 137.631L30.4392 137.631C27.8914 137.631 25.8259 135.565 25.8259 133.018C25.8259 130.47 27.8914 128.404 30.4392 128.404L90.4126 128.404ZM150.386 137.631C152.934 137.631 154.999 139.696 154.999 142.244C154.999 144.792 152.934 146.857 150.386 146.857L146.926 146.857C144.378 146.857 142.313 148.923 142.313 151.471C142.313 154.019 144.378 156.084 146.926 156.084L245.728 156.084C248.276 156.084 250.341 154.019 250.341 151.471C250.341 148.923 248.276 146.857 245.728 146.857L168.839 146.857L168.839 146.854C166.381 146.753 164.418 144.728 164.418 142.244C164.418 139.761 166.381 137.735 168.839 137.635L168.839 137.631L178.066 137.631C180.614 137.631 182.679 135.565 182.679 133.018C182.679 130.47 180.614 128.404 178.066 128.404L118.093 128.404C115.545 128.404 113.479 130.47 113.479 133.018C113.479 135.565 115.545 137.631 118.093 137.631L150.386 137.631ZM264.95 133.018C264.95 130.47 262.885 128.404 260.337 128.404L200.364 128.404C197.816 128.404 195.75 130.47 195.75 133.018C195.75 135.565 197.816 137.631 200.364 137.631L260.337 137.631C262.885 137.631 264.95 135.565 264.95 133.018ZM11.6015 165.311C14.1494 165.311 16.2148 167.376 16.2148 169.924C16.2148 172.472 14.1494 174.538 11.6015 174.538L-16.463 174.538C-19.0108 174.538 -21.0763 172.472 -21.0763 169.924C-21.0763 167.376 -19.0108 165.311 -16.463 165.311L11.6015 165.311ZM121.937 165.311C124.485 165.311 126.55 167.376 126.55 169.924C126.55 172.472 124.485 174.538 121.937 174.538L93.8726 174.538C91.3247 174.538 89.2592 172.472 89.2592 169.924C89.2592 167.376 91.3247 165.311 93.8726 165.311L121.937 165.311ZM223.43 169.924C223.43 167.376 221.365 165.311 218.817 165.311L154.999 165.311C152.451 165.311 150.386 167.376 150.386 169.924C150.386 172.472 152.451 174.538 154.999 174.538L218.817 174.538C221.365 174.538 223.43 172.472 223.43 169.924Z" clip-rule="evenodd" fill="#356CEE" fill-opacity="1.000000" fill-rule="evenodd"/>
		</g>
	</g>
	<mask id="mask0_220" mask-type="alpha" maskUnits="userSpaceOnUse" x="0.000000" y="0.000000" width="173.000000" height="173.000000">
		<circle id="path-1" cx="86.500000" cy="86.500000" r="86.500000" fill="#000000" fill-opacity="1.000000"/>
	</mask>
	<g mask="url(#mask0_220)">
		<path id="Combined-Shape" d="M56.96 105.33C56.96 102.79 54.9 100.72 52.35 100.72L45.04 100.72C42.5 100.72 40.43 98.65 40.43 96.11C40.43 93.56 42.5 91.49 45.04 91.49L75.41 91.49C77.96 91.49 80.03 93.56 80.03 96.11C80.03 98.65 77.96 100.72 75.41 100.72L74.26 100.72L74.26 100.72C71.8 100.82 69.84 102.85 69.84 105.33C69.84 107.82 71.8 109.84 74.26 109.94L74.26 109.95L75.41 109.95C77.96 109.95 80.03 112.01 80.03 114.56C80.03 117.11 77.96 119.17 75.41 119.17L51.96 119.17C49.42 119.17 47.35 117.11 47.35 114.56C47.35 112.01 49.42 109.95 51.96 109.95L52.35 109.95C54.9 109.95 56.96 107.88 56.96 105.33Z" fill="#2255CA" fill-opacity="1.000000" fill-rule="nonzero"/>
	</g>
	<mask id="mask0_223" mask-type="alpha" maskUnits="userSpaceOnUse" x="0.000000" y="0.000000" width="173.000000" height="173.000000">
		<circle id="path-1" cx="86.500000" cy="86.500000" r="86.500000" fill="#000000" fill-opacity="1.000000"/>
	</mask>
	<g mask="url(#mask0_223)">
		<g opacity="0.077576" style="mix-blend-mode:normal">
			<rect id="Rectangle" x="86.500000" y="4.229004" width="82.791817" height="164.542221" fill="#000000" fill-opacity="1.000000"/>
		</g>
	</g>
</svg>
