<svg width="111.000000" height="111.000000" viewBox="0 0 111 111" fill="none" xmlns="http://www.w3.org/2000/svg" xmlns:xlink="http://www.w3.org/1999/xlink">
	<desc>
			Created with Pixso.
	</desc>
	<defs/>
	<circle id="path-1" cx="55.500000" cy="55.500000" r="55.500000" fill="#DEF4FC" fill-opacity="1.000000"/>
	<mask id="mask0_1930" mask-type="alpha" maskUnits="userSpaceOnUse" x="0.000000" y="0.000000" width="111.000000" height="111.000000">
		<circle id="path-1" cx="55.500000" cy="55.500000" r="55.500000" fill="#000000" fill-opacity="1.000000"/>
	</mask>
	<g mask="url(#mask0_1930)">
		<path id="Combined-Shape" d="M58.9448 96.8384C61.4814 96.8384 63.5378 98.8945 63.5378 101.431C63.5378 103.968 61.4814 106.024 58.9448 106.024L51.2896 106.024C48.7529 106.024 46.6965 103.968 46.6965 101.431C46.6965 98.8945 48.7529 96.8384 51.2896 96.8384L58.9448 96.8384ZM91.8621 78.4658C94.3987 78.4658 96.4551 80.522 96.4551 83.0586C96.4551 85.5957 94.3987 87.6519 91.8621 87.6519L68.1309 87.6519C65.5942 87.6519 63.5378 85.5957 63.5378 83.0586C63.5378 80.522 65.5942 78.4658 68.1309 78.4658L91.8621 78.4658ZM49.7585 78.4658C52.2952 78.4658 54.3516 80.522 54.3516 83.0586C54.3516 85.5957 52.2952 87.6519 49.7585 87.6519C47.2219 87.6519 45.1655 85.5957 45.1655 83.0586C45.1655 80.522 47.2219 78.4658 49.7585 78.4658ZM32.5344 55.5C32.5344 52.9634 30.478 50.9072 27.9414 50.9072L0.765381 50.9072C-1.77124 50.9072 -3.82764 48.8506 -3.82764 46.314C-3.82764 43.7773 -1.77124 41.7207 0.765381 41.7207L19.5208 41.7207C22.0574 41.7207 24.1138 39.6646 24.1138 37.1279C24.1138 34.5913 22.0574 32.5347 19.5208 32.5347L17.6069 32.5347C15.0701 32.5347 13.0137 30.4785 13.0137 27.9414C13.0137 25.4048 15.0701 23.3486 17.6069 23.3486L45.5483 23.3486C48.085 23.3486 50.1414 25.4048 50.1414 27.9414C50.1414 30.4785 48.085 32.5347 45.5483 32.5347L37.8931 32.5347L37.8933 32.5386C35.4451 32.6387 33.4912 34.6553 33.4912 37.1279C33.4912 39.6006 35.4451 41.6167 37.8933 41.7168L37.8931 41.7207L55.1172 41.7207C57.6538 41.7207 59.7102 43.7773 59.7102 46.314C59.7102 48.8506 57.6538 50.9072 55.1172 50.9072L54.3516 50.9072L54.3513 50.9111C51.9036 51.0117 49.95 53.0278 49.95 55.5C49.95 57.9727 51.9036 59.9888 54.3513 60.0894L54.3516 60.0933L74.2551 60.0933C76.7917 60.0933 78.8481 62.1499 78.8481 64.6865C78.8481 67.2231 76.7917 69.2793 74.2551 69.2793L26.793 69.2793C24.2563 69.2793 22.2 67.2231 22.2 64.6865C22.2 62.1499 24.2563 60.0933 26.793 60.0933L27.9414 60.0933C30.478 60.0933 32.5344 58.0371 32.5344 55.5ZM93.7759 60.0933C96.3125 60.0933 98.3689 62.1499 98.3689 64.6865C98.3689 67.2231 96.3125 69.2793 93.7759 69.2793C91.239 69.2793 89.1826 67.2231 89.1826 64.6865C89.1826 62.1499 91.239 60.0933 93.7759 60.0933ZM8.42065 60.0933C10.9573 60.0933 13.0137 62.1499 13.0137 64.6865C13.0137 67.2231 10.9573 69.2793 8.42065 69.2793L0.765381 69.2793C-1.77124 69.2793 -3.82764 67.2231 -3.82764 64.6865C-3.82764 62.1499 -1.77124 60.0933 0.765381 60.0933L8.42065 60.0933ZM84.5896 23.3486C87.1262 23.3486 89.1826 25.4048 89.1826 27.9414C89.1826 30.4785 87.1262 32.5347 84.5896 32.5347L76.9343 32.5347C74.3977 32.5347 72.3413 30.4785 72.3413 27.9414C72.3413 25.4048 74.3977 23.3486 76.9343 23.3486L84.5896 23.3486ZM93.7759 4.97607C96.3125 4.97607 98.3689 7.03271 98.3689 9.56934C98.3689 12.106 96.3125 14.1621 93.7759 14.1621L71.5759 14.1621C69.0391 14.1621 66.9827 12.106 66.9827 9.56934C66.9827 7.03271 69.0391 4.97607 71.5759 4.97607L93.7759 4.97607Z" clip-rule="evenodd" fill="#B1D5E2" fill-opacity="1.000000" fill-rule="evenodd"/>
	</g>
	<mask id="mask0_1941" mask-type="alpha" maskUnits="userSpaceOnUse" x="0.000000" y="0.000000" width="111.000000" height="111.000000">
		<circle id="path-1" cx="55.500000" cy="55.500000" r="55.500000" fill="#000000" fill-opacity="1.000000"/>
	</mask>
	<g mask="url(#mask0_1941)">
		<g opacity="0.077576" style="mix-blend-mode:normal">
			<rect id="Rectangle" x="55.882812" width="55.500000" height="111.000000" fill="#000000" fill-opacity="1.000000"/>
		</g>
	</g>
</svg>
