<svg width="129.000000" height="129.000000" viewBox="0 0 129 129" fill="none" xmlns="http://www.w3.org/2000/svg" xmlns:xlink="http://www.w3.org/1999/xlink">
	<desc>
			Created with Pixso.
	</desc>
	<defs/>
	<circle id="path-1" cx="64.500000" cy="64.500000" r="64.500000" fill="#FF6A45" fill-opacity="1.000000"/>
	<mask id="mask0_1194" mask-type="alpha" maskUnits="userSpaceOnUse" x="0.000000" y="0.000000" width="129.000000" height="129.000000">
		<circle id="path-1" cx="64.500000" cy="64.500000" r="64.500000" fill="#000000" fill-opacity="1.000000"/>
	</mask>
	<g mask="url(#mask0_1194)">
		<path id="Combined-Shape" d="M39.1609 13.8213C39.1609 11.2769 37.0981 9.21436 34.5537 9.21436L21.1162 9.21436C18.5718 9.21436 16.509 7.15137 16.509 4.60693C16.509 2.0625 18.5718 0 21.1162 0L81.009 0C83.5535 0 85.6162 2.0625 85.6162 4.60693C85.6162 7.15137 83.5535 9.21436 81.009 9.21436L59.509 9.21436L59.5085 9.21826C57.0535 9.31934 55.094 11.3413 55.094 13.8213C55.094 16.3013 57.0535 18.3237 59.5085 18.4248L59.509 18.4287L64.5 18.4287C67.0447 18.4287 69.1072 20.4912 69.1072 23.0356C69.1072 25.5801 67.0447 27.6431 64.5 27.6431L15.7412 27.6431C13.1968 27.6431 11.134 25.5801 11.134 23.0356C11.134 20.4912 13.1968 18.4287 15.7412 18.4287L34.5537 18.4287C37.0981 18.4287 39.1609 16.3657 39.1609 13.8213ZM109.804 23.0356C109.804 20.4912 107.741 18.4287 105.197 18.4287L103.277 18.4287C100.732 18.4287 98.6697 20.4912 98.6697 23.0356C98.6697 25.5801 100.732 27.6431 103.277 27.6431L105.197 27.6431C107.741 27.6431 109.804 25.5801 109.804 23.0356Z" clip-rule="evenodd" fill="#FF9B6B" fill-opacity="1.000000" fill-rule="evenodd"/>
	</g>
	<mask id="mask0_1199" mask-type="alpha" maskUnits="userSpaceOnUse" x="0.000000" y="0.000000" width="129.000000" height="129.000000">
		<circle id="path-1" cx="64.500000" cy="64.500000" r="64.500000" fill="#000000" fill-opacity="1.000000"/>
	</mask>
	<g mask="url(#mask0_1199)">
		<path id="Combined-Shape-Copy" d="M80.2412 124.393C80.2412 121.848 78.1785 119.786 75.634 119.786L62.1965 119.786C59.6521 119.786 57.5894 117.723 57.5894 115.178C57.5894 112.634 59.6521 110.571 62.1965 110.571L122.089 110.571C124.634 110.571 126.697 112.634 126.697 115.178C126.697 117.723 124.634 119.786 122.089 119.786L100.589 119.786L100.589 119.79C98.1338 119.891 96.1743 121.913 96.1743 124.393C96.1743 126.873 98.1338 128.895 100.589 128.996L100.589 129L105.58 129C108.125 129 110.188 131.062 110.188 133.607C110.188 136.151 108.125 138.214 105.58 138.214L56.8215 138.214C54.2771 138.214 52.2144 136.151 52.2144 133.607C52.2144 131.062 54.2771 129 56.8215 129L75.634 129C78.1785 129 80.2412 126.937 80.2412 124.393ZM150.884 133.607C150.884 131.062 148.821 129 146.277 129L144.357 129C141.813 129 139.75 131.062 139.75 133.607C139.75 136.151 141.813 138.214 144.357 138.214L146.277 138.214C148.821 138.214 150.884 136.151 150.884 133.607Z" clip-rule="evenodd" fill="#FF9B6B" fill-opacity="1.000000" fill-rule="evenodd"/>
	</g>
	<mask id="mask0_1204" mask-type="alpha" maskUnits="userSpaceOnUse" x="0.000000" y="0.000000" width="129.000000" height="129.000000">
		<circle id="path-1" cx="64.500000" cy="64.500000" r="64.500000" fill="#000000" fill-opacity="1.000000"/>
	</mask>
	<g mask="url(#mask0_1204)">
		<path id="Combined-Shape" d="M53.366 27.6431C55.9104 27.6431 57.9731 29.7056 57.9731 32.25C57.9731 34.7944 55.9104 36.8574 53.366 36.8574L38.0088 36.8574C35.4644 36.8574 33.4019 34.7944 33.4019 32.25C33.4019 29.7056 35.4644 27.6431 38.0088 27.6431L53.366 27.6431ZM138.214 32.25C138.214 29.7056 136.152 27.6431 133.607 27.6431L118.25 27.6431C115.706 27.6431 113.643 29.7056 113.643 32.25C113.643 34.7944 115.706 36.8574 118.25 36.8574L133.607 36.8574C136.152 36.8574 138.214 34.7944 138.214 32.25ZM100.973 64.5C103.518 64.5 105.58 66.563 105.58 69.1074C105.58 71.6519 103.518 73.7144 100.973 73.7144L43 73.7144L42.9995 73.7183C40.5444 73.8193 38.585 75.8418 38.585 78.3218C38.585 80.8018 40.5444 82.8237 42.9995 82.9248L43 82.9287L50.2947 82.9287C52.8391 82.9287 54.9019 84.9917 54.9019 87.5361C54.9019 90.0806 52.8391 92.1431 50.2947 92.1431L4.22314 92.1431C1.67871 92.1431 -0.384033 90.0806 -0.384033 87.5361C-0.384033 84.9917 1.67871 82.9287 4.22314 82.9287L16.5088 82.9287C19.0535 82.9287 21.116 80.8662 21.116 78.3218C21.116 75.7773 19.0535 73.7144 16.5088 73.7144L-8.0625 73.7144C-10.6069 73.7144 -12.6697 71.6519 -12.6697 69.1074C-12.6697 66.563 -10.6069 64.5 -8.0625 64.5L100.973 64.5ZM85.616 87.5361C85.616 84.9917 83.5535 82.9287 81.0088 82.9287L73.3303 82.9287C70.7859 82.9287 68.7231 84.9917 68.7231 87.5361C68.7231 90.0806 70.7859 92.1431 73.3303 92.1431L81.0088 92.1431C83.5535 92.1431 85.616 90.0806 85.616 87.5361ZM43 105.964C43 103.42 40.9373 101.357 38.3928 101.357L30.7144 101.357C28.1697 101.357 26.1072 103.42 26.1072 105.964C26.1072 108.509 28.1697 110.572 30.7144 110.572L38.3928 110.572C40.9373 110.572 43 108.509 43 105.964ZM87.9197 105.964C87.9197 103.42 85.8569 101.357 83.3125 101.357L59.5088 101.357C56.9644 101.357 54.9019 103.42 54.9019 105.964C54.9019 108.509 56.9644 110.572 59.5088 110.572L83.3125 110.572C85.8569 110.572 87.9197 108.509 87.9197 105.964Z" clip-rule="evenodd" fill="#D04237" fill-opacity="1.000000" fill-rule="evenodd"/>
	</g>
	<mask id="mask0_1213" mask-type="alpha" maskUnits="userSpaceOnUse" x="0.000000" y="0.000000" width="129.000000" height="129.000000">
		<circle id="path-1" cx="64.500000" cy="64.500000" r="64.500000" fill="#000000" fill-opacity="1.000000"/>
	</mask>
	<g mask="url(#mask0_1213)">
		<g opacity="0.077576" style="mix-blend-mode:normal">
			<rect id="Rectangle" x="64.884033" y="-6.143066" width="70.642860" height="141.285721" fill="#000000" fill-opacity="1.000000"/>
		</g>
	</g>
</svg>
