<svg width="173.000000" height="173.000000" viewBox="0 0 173 173" fill="none" xmlns="http://www.w3.org/2000/svg" xmlns:xlink="http://www.w3.org/1999/xlink">
	<desc>
			Created with Pixso.
	</desc>
	<defs/>
	<circle id="path-1" cx="86.500000" cy="86.500000" r="86.500000" fill="#545BFE" fill-opacity="1.000000"/>
	<mask id="mask0_1433" mask-type="alpha" maskUnits="userSpaceOnUse" x="0.000000" y="0.000000" width="173.000000" height="173.000000">
		<circle id="path-1" cx="86.500000" cy="86.500000" r="86.500000" fill="#000000" fill-opacity="1.000000"/>
	</mask>
	<g mask="url(#mask0_1433)">
		<path id="Combined-Shape" d="M72.2756 10.3799C72.2756 7.83203 70.2102 5.7666 67.6624 5.7666L-11.1489 5.7666C-13.6968 5.7666 -15.7622 7.83203 -15.7622 10.3799C-15.7622 12.9277 -13.6968 14.9932 -11.1489 14.9932L7.30444 14.9932C9.85229 14.9932 11.9177 17.0586 11.9177 19.6064C11.9177 22.1543 9.85229 24.2197 7.30444 24.2197L4.9978 24.2197C2.44995 24.2197 0.384521 26.2852 0.384521 28.8335C0.384521 31.3813 2.44995 33.4468 4.9978 33.4468L3.45996 33.4468C6.00781 33.4468 8.07324 35.5122 8.07324 38.0601C8.07324 40.6079 6.00781 42.6733 3.45996 42.6733L-0.384521 42.6733C-2.93237 42.6733 -4.9978 44.7388 -4.9978 47.2866C-4.9978 49.8345 -2.93237 51.8999 -0.384521 51.8999L45.3645 51.8999C47.9124 51.8999 49.9778 49.8345 49.9778 47.2866C49.9778 44.7388 47.9124 42.6733 45.3645 42.6733L43.4421 42.6733L43.4421 42.6694C40.9836 42.5684 39.0212 40.5435 39.0212 38.0601C39.0212 35.5767 40.9836 33.5513 43.4421 33.4507L43.4421 33.4468L69.969 33.4468C72.5168 33.4468 74.5823 31.3813 74.5823 28.8335C74.5823 26.2852 72.5168 24.2197 69.969 24.2197L67.2778 24.2197L67.2778 24.2158C64.8191 24.1152 62.8567 22.0898 62.8567 19.6064C62.8567 17.123 64.8191 15.0981 67.2778 14.9971L67.2778 14.9932L67.6624 14.9932C70.2102 14.9932 72.2756 12.9277 72.2756 10.3799ZM37.6755 61.1265C40.2234 61.1265 42.2888 63.1919 42.2888 65.7397C42.2888 68.2876 40.2234 70.3535 37.6755 70.3535C35.1277 70.3535 33.0623 68.2876 33.0623 65.7397C33.0623 63.1919 35.1277 61.1265 37.6755 61.1265ZM23.4512 74.9668C23.4512 72.4189 21.3857 70.3535 18.8379 70.3535L5.38232 70.3535C2.83447 70.3535 0.768799 72.4189 0.768799 74.9668C0.768799 77.5146 2.83447 79.5801 5.38232 79.5801L18.8379 79.5801C21.3857 79.5801 23.4512 77.5146 23.4512 74.9668ZM51.5156 134.94C54.0635 134.94 56.1289 132.875 56.1289 130.327C56.1289 127.779 54.0635 125.713 51.5156 125.713L44.2112 125.713C41.6633 125.713 39.5979 123.648 39.5979 121.1C39.5979 118.552 41.6633 116.487 44.2112 116.487L43.4421 116.487C45.9902 116.487 48.0557 114.421 48.0557 111.873C48.0557 109.325 45.9902 107.26 43.4421 107.26L39.5979 107.26C37.0498 107.26 34.9844 105.194 34.9844 102.646C34.9844 100.099 37.0498 98.0332 39.5979 98.0332C42.1458 98.0332 44.2112 95.9678 44.2112 93.4199C44.2112 90.8721 42.1458 88.8066 39.5979 88.8066C37.0498 88.8066 34.9844 86.7412 34.9844 84.1934C34.9844 81.6455 37.0498 79.5801 39.5979 79.5801L58.4355 79.5801C60.9834 79.5801 63.0488 81.6455 63.0488 84.1934C63.0488 86.7412 60.9834 88.8066 58.4355 88.8066L59.2043 88.8066L59.2043 88.8105C56.7458 88.9111 54.7834 90.9365 54.7834 93.4199C54.7834 95.9033 56.7458 97.9287 59.2043 98.0293L59.2043 98.0332L78.811 98.0332C81.3589 98.0332 83.4246 100.099 83.4246 102.646C83.4246 105.194 81.3589 107.26 78.811 107.26L76.5044 107.26L76.5044 107.264C74.0459 107.365 72.0835 109.39 72.0835 111.873C72.0835 114.357 74.0459 116.382 76.5044 116.482L76.5044 116.487C79.0522 116.487 81.1177 118.552 81.1177 121.1C81.1177 123.648 79.0522 125.713 76.5044 125.713L66.1245 125.713L66.1245 125.717C63.6658 125.818 61.7034 127.843 61.7034 130.327C61.7034 132.81 63.6658 134.835 66.1245 134.936L66.1245 134.94L64.5867 134.94C67.1345 134.94 69.2 137.005 69.2 139.553C69.2 142.101 67.1345 144.167 64.5867 144.167L53.4377 144.167C50.8899 144.167 48.8245 142.101 48.8245 139.553C48.8245 137.005 50.8899 134.94 53.4377 134.94L51.5156 134.94Z" clip-rule="evenodd" fill="#4FCDF9" fill-opacity="1.000000" fill-rule="evenodd"/>
	</g>
	<mask id="mask0_1440" mask-type="alpha" maskUnits="userSpaceOnUse" x="0.000000" y="0.000000" width="173.000000" height="173.000000">
		<circle id="path-1" cx="86.500000" cy="86.500000" r="86.500000" fill="#000000" fill-opacity="1.000000"/>
	</mask>
	<g mask="url(#mask0_1440)">
		<path id="Combined-Shape" d="M162.236 19.6064C162.236 17.0586 160.17 14.9932 157.622 14.9932L148.396 14.9932C145.848 14.9932 143.782 17.0586 143.782 19.6064C143.782 22.1543 145.848 24.2197 148.396 24.2197L157.622 24.2197C160.17 24.2197 162.236 22.1543 162.236 19.6064ZM253.733 24.2197C256.281 24.2197 258.347 26.2852 258.347 28.833C258.347 31.3809 256.281 33.4463 253.733 33.4463L251.042 33.4463L251.042 33.4502C248.584 33.5513 246.621 35.5762 246.621 38.0601C246.621 40.5435 248.584 42.5684 251.042 42.6694L251.042 42.6733L257.193 42.6733C259.741 42.6733 261.807 44.7388 261.807 47.2866C261.807 49.8345 259.741 51.8999 257.193 51.8999L190.3 51.8999C187.752 51.8999 185.687 49.8345 185.687 47.2866C185.687 44.7388 187.752 42.6733 190.3 42.6733L188.378 42.6733C190.926 42.6733 192.991 40.6079 192.991 38.0601C192.991 35.5117 190.926 33.4463 188.378 33.4463L172.616 33.4463C170.068 33.4463 168.002 31.3809 168.002 28.833C168.002 26.2852 170.068 24.2197 172.616 24.2197L253.733 24.2197ZM142.629 38.0601C142.629 35.5117 140.563 33.4463 138.016 33.4463L128.789 33.4463C126.241 33.4463 124.176 35.5117 124.176 38.0601C124.176 40.6079 126.241 42.6733 128.789 42.6733L138.016 42.6733C140.563 42.6733 142.629 40.6079 142.629 38.0601ZM152.625 33.4463C155.172 33.4463 157.238 35.5117 157.238 38.0601C157.238 40.6079 155.172 42.6733 152.625 42.6733L151.471 42.6733C148.923 42.6733 146.858 40.6079 146.858 38.0601C146.858 35.5117 148.923 33.4463 151.471 33.4463L152.625 33.4463ZM154.547 121.1C154.547 123.647 152.481 125.713 149.933 125.713L151.471 125.713C148.923 125.713 146.858 127.779 146.858 130.327C146.858 132.875 148.923 134.94 151.471 134.94L165.311 134.94C167.859 134.94 169.925 132.875 169.925 130.327C169.925 127.779 167.859 125.713 165.311 125.713L166.849 125.713L166.849 125.709C164.39 125.608 162.428 123.583 162.428 121.1C162.428 118.616 164.39 116.591 166.849 116.49L166.849 116.486L174.538 116.486C177.086 116.486 179.151 114.421 179.151 111.873C179.151 109.325 177.086 107.26 174.538 107.26L175.307 107.26L175.306 107.256C172.848 107.155 170.886 105.13 170.886 102.646C170.886 100.163 172.848 98.1382 175.306 98.0371L175.307 98.0332L181.073 98.0332C183.621 98.0332 185.687 95.9678 185.687 93.4199C185.687 90.8721 183.621 88.8066 181.073 88.8066L177.229 88.8066L177.229 88.8027C174.77 88.7017 172.808 86.6768 172.808 84.1934C172.808 81.71 174.77 79.6846 177.229 79.584L177.229 79.5801L184.918 79.5801C187.466 79.5801 189.531 77.5142 189.531 74.9663C189.531 72.4185 187.466 70.353 184.918 70.353L149.933 70.353L149.933 70.3491C147.475 70.248 145.512 68.2231 145.512 65.7397C145.512 63.2563 147.475 61.2314 149.933 61.1304L149.933 61.1265C152.481 61.1265 154.547 59.061 154.547 56.5132C154.547 53.9653 152.481 51.8999 149.933 51.8999L128.405 51.8999C125.857 51.8999 123.791 53.9653 123.791 56.5132C123.791 59.061 125.857 61.1265 128.405 61.1265C130.952 61.1265 133.018 63.1919 133.018 65.7397C133.018 68.2876 130.952 70.353 128.405 70.353L118.409 70.353C115.861 70.353 113.796 72.4185 113.796 74.9663C113.796 77.5142 115.861 79.5801 118.409 79.5801L131.48 79.5801C134.028 79.5801 136.094 81.6455 136.094 84.1934C136.094 86.7412 134.028 88.8066 131.48 88.8066C128.932 88.8066 126.867 90.8721 126.867 93.4199C126.867 95.9678 128.932 98.0332 131.48 98.0332L148.78 98.0332C151.328 98.0332 153.394 100.099 153.394 102.646C153.394 105.194 151.328 107.26 148.78 107.26L149.933 107.26C147.385 107.26 145.32 109.325 145.32 111.873C145.32 114.421 147.385 116.486 149.933 116.486C152.481 116.486 154.547 118.552 154.547 121.1ZM182.227 56.5132C182.227 53.9653 180.161 51.8999 177.614 51.8999L172.231 51.8999C169.683 51.8999 167.618 53.9653 167.618 56.5132C167.618 59.061 169.683 61.1265 172.231 61.1265L177.614 61.1265C180.161 61.1265 182.227 59.061 182.227 56.5132ZM184.533 116.486C187.081 116.486 189.147 118.552 189.147 121.1C189.147 123.647 187.081 125.713 184.533 125.713C181.986 125.713 179.92 123.647 179.92 121.1C179.92 118.552 181.986 116.486 184.533 116.486Z" clip-rule="evenodd" fill="#4FCDF9" fill-opacity="1.000000" fill-rule="evenodd"/>
	</g>
	<mask id="mask0_1450" mask-type="alpha" maskUnits="userSpaceOnUse" x="0.000000" y="0.000000" width="173.000000" height="173.000000">
		<circle id="path-1" cx="86.500000" cy="86.500000" r="86.500000" fill="#000000" fill-opacity="1.000000"/>
	</mask>
	<g mask="url(#mask0_1450)">
		<path id="Combined-Shape" d="M118.025 19.6069C118.025 17.0591 115.959 14.9937 113.411 14.9937L67.2778 14.9937C64.73 14.9937 62.6646 12.9282 62.6646 10.3804C62.6646 7.83203 64.73 5.7666 67.2778 5.7666L86.1157 5.7666C88.6636 5.7666 90.729 3.70117 90.729 1.15332C90.729 -1.39453 88.6636 -3.45996 86.1157 -3.45996L79.9646 -3.45996C77.4167 -3.45996 75.3513 -5.52539 75.3513 -8.07324C75.3513 -10.6211 77.4167 -12.6865 79.9646 -12.6865L103.8 -12.6865C106.348 -12.6865 108.413 -10.6211 108.413 -8.07324C108.413 -5.52539 106.348 -3.45996 103.8 -3.45996L104.569 -3.45996L104.569 -3.45605C102.11 -3.35547 100.148 -1.33008 100.148 1.15332C100.148 3.63721 102.11 5.66211 104.569 5.7627L104.569 5.7666L166.08 5.7666C168.628 5.7666 170.693 7.83203 170.693 10.3804C170.693 12.9282 168.628 14.9937 166.08 14.9937L139.938 14.9937L139.938 14.9976C137.479 15.0986 135.517 17.1235 135.517 19.6069C135.517 22.0903 137.479 24.1152 139.938 24.2163L139.938 24.2202L141.091 24.2202C143.639 24.2202 145.705 26.2856 145.705 28.8335C145.705 31.3813 143.639 33.4468 141.091 33.4468L111.874 33.4468C109.326 33.4468 107.26 31.3813 107.26 28.8335C107.26 26.2856 109.326 24.2202 111.874 24.2202L113.411 24.2202C115.959 24.2202 118.025 22.1548 118.025 19.6069ZM186.84 -8.07324C186.84 -10.6211 184.775 -12.6865 182.227 -12.6865L122.253 -12.6865C119.706 -12.6865 117.64 -10.6211 117.64 -8.07324C117.64 -5.52539 119.706 -3.45996 122.253 -3.45996L182.227 -3.45996C184.775 -3.45996 186.84 -5.52539 186.84 -8.07324ZM93.4202 24.2202C95.968 24.2202 98.0334 26.2856 98.0334 28.8335C98.0334 31.3813 95.968 33.4468 93.4202 33.4468L85.7312 33.4468C83.1833 33.4468 81.1179 31.3813 81.1179 28.8335C81.1179 26.2856 83.1833 24.2202 85.7312 24.2202L93.4202 24.2202ZM171.847 28.8335C171.847 26.2856 169.781 24.2202 167.233 24.2202L159.544 24.2202C156.997 24.2202 154.931 26.2856 154.931 28.8335C154.931 31.3813 156.997 33.4468 159.544 33.4468L167.233 33.4468C169.781 33.4468 171.847 31.3813 171.847 28.8335ZM158.776 42.6733C161.323 42.6733 163.389 44.7388 163.389 47.2866C163.389 49.8345 161.323 51.9004 158.776 51.9004L134.94 51.9004C132.392 51.9004 130.327 49.8345 130.327 47.2866C130.327 44.7388 132.392 42.6733 134.94 42.6733L158.776 42.6733Z" clip-rule="evenodd" fill="#FFFFFF" fill-opacity="1.000000" fill-rule="evenodd"/>
	</g>
	<mask id="mask0_1458" mask-type="alpha" maskUnits="userSpaceOnUse" x="0.000000" y="0.000000" width="173.000000" height="173.000000">
		<circle id="path-1" cx="86.500000" cy="86.500000" r="86.500000" fill="#000000" fill-opacity="1.000000"/>
	</mask>
	<g mask="url(#mask0_1458)">
		<path id="Combined-Shape" d="M37.291 139.553C37.291 137.005 35.2256 134.94 32.6777 134.94L6.5354 134.94C3.98755 134.94 1.92212 132.875 1.92212 130.327C1.92212 127.778 3.98755 125.713 6.5354 125.713L45.3643 125.713C47.9121 125.713 49.9778 123.647 49.9778 121.1C49.9778 118.552 47.9121 116.486 45.3643 116.486L36.5222 116.486C33.9741 116.486 31.9087 114.421 31.9087 111.873C31.9087 109.325 33.9741 107.26 36.5222 107.26L81.8865 107.26C84.4343 107.26 86.5 109.325 86.5 111.873C86.5 114.421 84.4343 116.486 81.8865 116.486L63.8176 116.486L63.8179 116.49C61.3591 116.591 59.3965 118.616 59.3965 121.1C59.3965 123.583 61.3591 125.608 63.8179 125.709L63.8176 125.713L69.2 125.713C71.7478 125.713 73.8132 127.778 73.8132 130.327C73.8132 132.875 71.7478 134.94 69.2 134.94L59.2043 134.94L59.2039 134.944C56.7454 135.045 54.7834 137.07 54.7834 139.553C54.7834 142.037 56.7454 144.062 59.2039 144.163L59.2043 144.167L60.3577 144.167C62.9055 144.167 64.9709 146.232 64.9709 148.78C64.9709 151.328 62.9055 153.393 60.3577 153.393L31.1399 153.393C28.592 153.393 26.5266 151.328 26.5266 148.78C26.5266 146.232 28.592 144.167 31.1399 144.167L32.6777 144.167C35.2256 144.167 37.291 142.101 37.291 139.553ZM99.9556 130.327C99.9556 127.778 97.8899 125.713 95.342 125.713L87.6533 125.713C85.1055 125.713 83.0398 127.778 83.0398 130.327C83.0398 132.875 85.1055 134.94 87.6533 134.94L95.342 134.94C97.8899 134.94 99.9556 132.875 99.9556 130.327Z" clip-rule="evenodd" fill="#FFFFFF" fill-opacity="1.000000" fill-rule="evenodd"/>
	</g>
	<mask id="mask0_1463" mask-type="alpha" maskUnits="userSpaceOnUse" x="0.000000" y="0.000000" width="173.000000" height="173.000000">
		<circle id="path-1" cx="86.500000" cy="86.500000" r="86.500000" fill="#000000" fill-opacity="1.000000"/>
	</mask>
	<g mask="url(#mask0_1463)">
		<path id="Combined-Shape-Copy" d="M134.171 176.46C134.171 173.913 132.106 171.847 129.558 171.847L103.416 171.847C100.868 171.847 98.8022 169.782 98.8022 167.234C98.8022 164.686 100.868 162.62 103.416 162.62L142.244 162.62C144.792 162.62 146.858 160.555 146.858 158.007C146.858 155.459 144.792 153.394 142.244 153.394L133.402 153.394C130.854 153.394 128.789 151.328 128.789 148.78C128.789 146.232 130.854 144.167 133.402 144.167L178.767 144.167C181.314 144.167 183.38 146.232 183.38 148.78C183.38 151.328 181.314 153.394 178.767 153.394L160.698 153.394L160.698 153.397C158.239 153.498 156.277 155.523 156.277 158.007C156.277 160.491 158.239 162.516 160.698 162.616L160.698 162.62L166.08 162.62C168.628 162.62 170.693 164.686 170.693 167.234C170.693 169.782 168.628 171.847 166.08 171.847L156.084 171.847L156.084 171.851C153.625 171.952 151.664 173.977 151.664 176.46C151.664 178.944 153.625 180.969 156.084 181.07L156.084 181.074L157.238 181.074C159.786 181.074 161.851 183.139 161.851 185.687C161.851 188.235 159.786 190.3 157.238 190.3L128.02 190.3C125.472 190.3 123.407 188.235 123.407 185.687C123.407 183.139 125.472 181.074 128.02 181.074L129.558 181.074C132.106 181.074 134.171 179.008 134.171 176.46ZM196.836 167.234C196.836 164.686 194.77 162.62 192.222 162.62L184.533 162.62C181.986 162.62 179.92 164.686 179.92 167.234C179.92 169.782 181.986 171.847 184.533 171.847L192.222 171.847C194.77 171.847 196.836 169.782 196.836 167.234Z" clip-rule="evenodd" fill="#FFFFFF" fill-opacity="1.000000" fill-rule="evenodd"/>
	</g>
	<mask id="mask0_1468" mask-type="alpha" maskUnits="userSpaceOnUse" x="0.000000" y="0.000000" width="173.000000" height="173.000000">
		<circle id="path-1" cx="86.500000" cy="86.500000" r="86.500000" fill="#000000" fill-opacity="1.000000"/>
	</mask>
	<g mask="url(#mask0_1468)">
		<g opacity="0.077576" style="mix-blend-mode:normal">
			<rect id="Rectangle" x="86.685791" y="-9.611328" width="96.297012" height="192.222229" fill="#000000" fill-opacity="1.000000"/>
		</g>
	</g>
</svg>
