<svg width="256.000000" height="256.000000" viewBox="0 0 256 256" fill="none" xmlns="http://www.w3.org/2000/svg" xmlns:xlink="http://www.w3.org/1999/xlink">
	<desc>
			Created with Pixso.
	</desc>
	<defs/>
	<path id="Combined-Shape-Copy-4" d="M236.025 235.754C247.057 224.722 207.696 167.475 148.11 107.889C88.5247 48.3037 31.2776 8.94287 20.2456 19.9751L20.1163 20.1162L37.6088 37.6089C37.6519 37.562 37.696 37.5156 37.7412 37.4707C46.9843 28.2275 94.948 61.2056 144.871 111.128C194.794 161.052 227.772 209.016 218.529 218.258L218.388 218.388L235.887 235.887C235.934 235.844 235.98 235.799 236.025 235.754ZM143.791 111.938C191.294 159.441 222.673 205.081 213.877 213.876L207.285 207.285L207.427 207.156C215.552 199.031 186.638 156.944 142.847 113.153C99.0553 69.3618 56.9688 40.4482 48.8438 48.5732C48.7986 48.6182 48.7546 48.6646 48.7117 48.7119L41.8517 41.8511C50.6475 33.0552 96.287 64.4341 143.791 111.938Z" clip-rule="evenodd" fill="#B87D43" fill-opacity="1.000000" fill-rule="evenodd"/>
	<circle id="path-1" cx="127.982788" cy="121.851074" r="79.940598" fill="#FCCB6B" fill-opacity="1.000000"/>
	<mask id="mask0_697" mask-type="alpha" maskUnits="userSpaceOnUse" x="48.042236" y="41.910645" width="159.881226" height="159.881348">
		<circle id="path-1" cx="127.982788" cy="121.851074" r="79.940598" fill="#000000" fill-opacity="1.000000"/>
	</mask>
	<g mask="url(#mask0_697)">
		<path id="Combined-Shape-Copy" d="M207.297 198.897C205.495 197.097 202.575 197.097 200.774 198.897C198.973 200.699 198.973 203.619 200.774 205.42L243.169 247.815C244.97 249.616 247.89 249.616 249.692 247.815C251.493 246.014 251.493 243.094 249.692 241.292L207.297 198.897ZM147.509 139.11C145.708 137.309 142.788 137.309 140.987 139.11C139.186 140.911 139.186 143.831 140.987 145.632L162.184 166.83L162.181 166.833C163.848 168.642 163.804 171.46 162.048 173.216C160.293 174.972 157.474 175.016 155.664 173.349L155.662 173.352L112.18 129.87C110.379 128.069 107.459 128.069 105.657 129.87C103.856 131.671 103.856 134.591 105.657 136.393L175.5 206.235C177.302 208.036 180.222 208.036 182.023 206.235C183.824 204.434 183.824 201.514 182.023 199.713L168.706 186.396C166.905 184.596 166.905 181.675 168.706 179.875C170.507 178.073 173.428 178.073 175.229 179.875L183.381 188.027C185.183 189.828 188.103 189.828 189.904 188.027C191.705 186.226 191.705 183.306 189.904 181.505L147.509 139.11ZM98.5917 103.237C96.7906 101.437 93.8705 101.437 92.0695 103.237C90.2683 105.039 90.2683 107.958 92.0695 109.76L94.5153 112.206C96.3164 114.007 96.3164 116.927 94.5153 118.728C92.7142 120.529 89.7941 120.529 87.9929 118.728L18.1501 48.8848C16.349 47.084 16.349 44.1636 18.1501 42.3628C19.9512 40.5615 22.8713 40.5615 24.6724 42.3628L79.0248 96.7148L79.0275 96.7124C80.8368 98.3789 83.6556 98.335 85.4113 96.5791C87.1669 94.8237 87.2112 92.0049 85.5442 90.1953L85.5471 90.1929L79.0248 83.6704C77.2238 81.8696 77.2238 78.9492 79.0248 77.1479C80.8259 75.3472 83.7461 75.3472 85.5471 77.1484L127.942 119.543C129.743 121.344 129.743 124.264 127.942 126.065C126.141 127.867 123.221 127.867 121.42 126.065L98.5917 103.237ZM20.8677 18.9912C22.6688 17.1899 25.589 17.1899 27.39 18.9912L69.7849 61.3857C71.5859 63.187 71.5859 66.1074 69.7849 67.9082C67.9839 69.7095 65.0637 69.7095 63.2626 67.9082L20.8677 25.5132C19.0667 23.7124 19.0667 20.792 20.8677 18.9912ZM177.131 220.91C175.33 219.109 172.41 219.109 170.609 220.91C168.808 222.711 168.808 225.632 170.609 227.433L190.447 247.271C192.248 249.072 195.169 249.072 196.97 247.271C198.771 245.47 198.771 242.55 196.97 240.749L177.131 220.91ZM99.1353 142.915C97.3341 141.114 94.4141 141.114 92.6129 142.915C90.8119 144.716 90.8119 147.636 92.6129 149.437L112.452 169.275C114.253 171.077 117.173 171.077 118.974 169.275C120.775 167.475 120.775 164.554 118.974 162.753L99.1353 142.915ZM24.1289 74.4307C25.9299 72.6294 28.8501 72.6294 30.6511 74.4307L75.7637 119.543C77.5647 121.344 77.5647 124.264 75.7637 126.065C73.9626 127.867 71.0425 127.867 69.2415 126.065L24.1289 80.9526C22.3278 79.1519 22.3278 76.2314 24.1289 74.4307Z" clip-rule="evenodd" fill="#ECB55A" fill-opacity="1.000000" fill-rule="evenodd"/>
	</g>
	<mask id="mask0_707" mask-type="alpha" maskUnits="userSpaceOnUse" x="48.042236" y="41.910645" width="159.881226" height="159.881348">
		<circle id="path-1" cx="127.982788" cy="121.851074" r="79.940598" fill="#000000" fill-opacity="1.000000"/>
	</mask>
	<g mask="url(#mask0_707)">
		<g opacity="0.077576" style="mix-blend-mode:normal">
			<rect id="Rectangle" x="127.982910" y="41.910645" width="80.359138" height="159.881195" fill="#000000" fill-opacity="1.000000"/>
		</g>
	</g>
	<path id="Combined-Shape" d="M235.754 236.025C224.722 247.057 167.475 207.696 107.89 148.11C48.3038 88.5249 8.94324 31.2778 19.9752 20.2456L20.1163 20.1167L37.6091 37.6089C37.5621 37.6519 37.516 37.6963 37.4708 37.7412C28.2278 46.9844 61.2056 94.9482 111.129 144.871C161.052 194.794 209.016 227.772 218.259 218.529L218.388 218.388L235.887 235.887C235.844 235.934 235.8 235.98 235.754 236.025ZM111.938 143.791C159.441 191.294 205.081 222.673 213.877 213.877L207.285 207.285L207.156 207.427C199.031 215.552 156.945 186.638 113.153 142.847C69.3619 99.0552 40.4485 56.9688 48.5734 48.8438C48.6185 48.7988 48.6648 48.7549 48.712 48.7119L41.8512 41.8516C33.0554 50.6475 64.4342 96.2871 111.938 143.791Z" clip-rule="evenodd" fill="#B87D43" fill-opacity="1.000000" fill-rule="evenodd"/>
</svg>
